<?xml version="1.0" encoding="utf-8"?>
<!-- Generator: Adobe Illustrator 25.3.0, SVG Export Plug-In . SVG Version: 6.00 Build 0)  -->
<svg version="1.1" id="Layer_1" xmlns="http://www.w3.org/2000/svg" xmlns:xlink="http://www.w3.org/1999/xlink" x="0px" y="0px"
	 viewBox="0 0 92.01 92.01" style="enable-background:new 0 0 92.01 92.01;" xml:space="preserve">

<path class="st0" d="M81.9,48.2c-8.62-2.4-18.36-3.54-27-3.34c11.89-3.34,16.29-8.41,17.77-12.52c1.74-4.84,0.02-10.13-4.5-13.82
	c-4.79-3.91-13.3-6.07-20.67-1.58c-4.6,2.8-10.2,9.17-11.14,23.57c-5.7,0.39-18.8,0.61-25.4,0.56c-2.02,0-3.67,1.64-3.68,3.66
	c-0.01,2.03,1.63,3.7,3.66,3.71c5.86,0.04,19.09-0.14,25.35-0.55c0.01,0.15,0.01,0.3,0.02,0.45c-7.43,3.08-12.98,8-15.67,13.92
	c-3.32,7.31-1.61,14.56,4.36,18.48c2.23,1.47,4.79,2.24,7.4,2.24c2.74,0,5.42-0.85,7.77-2.45c4.81-3.29,7.15-9.07,5.95-14.72
	c-0.62-2.94-1.45-7.37-1.97-12.3c7.91-1.85,22.02-2.06,35.78,1.77c1.96,0.55,3.99-0.6,4.54-2.56C85.01,50.79,83.86,48.75,81.9,48.2z
	 M65.73,29.85c-0.6,1.67-3.94,7.19-21.9,9.83c0.69-8.3,3.21-13.83,7.5-16.45c1.57-0.96,3.32-1.45,5.18-1.45
	c2.49,0,5.11,0.91,6.98,2.45C64.73,25.24,66.65,27.3,65.73,29.85z M36.01,74.46c-2.2,1.5-4.81,1.55-6.97,0.14
	c-2.85-1.87-3.48-5.33-1.69-9.27c1.68-3.7,5.07-6.94,9.64-9.22c0.45,3.55,1.09,7.32,1.92,11.26C39.6,70.66,37.87,73.19,36.01,74.46z
	"/>
</svg>
