<?xml version="1.0" encoding="utf-8"?>
<!-- Generator: Adobe Illustrator 25.3.0, SVG Export Plug-In . SVG Version: 6.00 Build 0)  -->
<svg version="1.1" id="Layer_1" xmlns="http://www.w3.org/2000/svg" xmlns:xlink="http://www.w3.org/1999/xlink" x="0px" y="0px"
	 viewBox="0 0 234 54" style="enable-background:new 0 0 234 54;" xml:space="preserve">

<g>
	<g>
		<path class="st1" d="M36.41,40.03V21.97h-5.15v-5.06h5.15V14.7c0-2.6,0.75-4.59,2.26-5.97c1.51-1.37,3.68-2.06,6.52-2.06
			c0.62,0,1.26,0.03,1.91,0.09c0.65,0.06,1.21,0.16,1.69,0.31v5.1c-0.56-0.12-1.05-0.21-1.46-0.27c-0.41-0.06-0.87-0.09-1.38-0.09
			c-1.15,0-2.02,0.24-2.6,0.73c-0.58,0.49-0.87,1.25-0.87,2.28v2.09h6.3v5.06h-6.3v18.06H36.41z"/>
		<path class="st1" d="M54.65,49.58c-0.53,0-1.04-0.02-1.53-0.07c-0.49-0.04-0.89-0.1-1.22-0.16v-5.24c0.59,0.12,1.3,0.18,2.13,0.18
			c2.22,0,3.76-1.05,4.62-3.15L59,40.26l-9.01-23.34h6.7l5.77,15.75l6.52-15.75h6.57L64.9,41.9c-0.8,1.86-1.67,3.36-2.62,4.48
			c-0.95,1.12-2.03,1.94-3.26,2.44C57.79,49.32,56.33,49.58,54.65,49.58z"/>
		<path class="st1" d="M77.99,40.03V16.92h6.08v2.57c0.74-1.01,1.63-1.78,2.66-2.31c1.04-0.53,2.2-0.8,3.51-0.8
			c1.12,0.03,1.97,0.21,2.53,0.53v5.33c-0.44-0.21-0.93-0.36-1.46-0.47c-0.53-0.1-1.08-0.16-1.64-0.16c-1.18,0-2.26,0.3-3.24,0.89
			c-0.98,0.59-1.76,1.43-2.35,2.53v15H77.99z"/>
		<path class="st1" d="M106.48,40.48c-2.31,0-4.4-0.53-6.28-1.6c-1.88-1.07-3.37-2.5-4.46-4.3c-1.09-1.8-1.64-3.83-1.64-6.08
			c0-2.25,0.52-4.27,1.58-6.08c1.05-1.8,2.48-3.24,4.28-4.3c1.8-1.07,3.82-1.6,6.03-1.6s4.19,0.55,5.9,1.64
			c1.72,1.1,3.07,2.57,4.06,4.44c0.99,1.86,1.49,3.98,1.49,6.35v1.6h-17.13c0.27,0.92,0.7,1.75,1.31,2.48
			c0.61,0.74,1.36,1.32,2.26,1.73c0.9,0.42,1.87,0.62,2.91,0.62c1.04,0,1.99-0.16,2.86-0.49c0.87-0.33,1.62-0.78,2.24-1.38
			l3.99,3.64c-1.42,1.15-2.88,2-4.37,2.53C110.02,40.21,108.34,40.48,106.48,40.48z M100.22,26.19h11.23
			c-0.21-0.92-0.58-1.72-1.13-2.42c-0.55-0.69-1.2-1.24-1.95-1.64c-0.75-0.4-1.59-0.6-2.51-0.6c-0.95,0-1.81,0.19-2.57,0.58
			c-0.77,0.39-1.41,0.92-1.93,1.62C100.83,24.42,100.46,25.24,100.22,26.19z"/>
		<path class="st1" d="M124.41,40.03l-6.35-23.12h5.77l3.82,14.91l4.61-14.91h5.1l4.57,14.95l3.82-14.95h5.68l-6.39,23.12h-5.81
			l-4.48-14.78l-4.48,14.78H124.41z"/>
		<path class="st1" d="M159.42,40.43c-1.66,0-3.12-0.3-4.39-0.91c-1.27-0.61-2.26-1.44-2.97-2.51c-0.71-1.06-1.07-2.29-1.07-3.68
			c0-2.22,0.84-3.94,2.51-5.17c1.67-1.23,3.97-1.84,6.9-1.84c2.01,0,3.9,0.31,5.68,0.93v-1.69c0-1.33-0.41-2.34-1.24-3.02
			c-0.83-0.68-2.04-1.02-3.64-1.02c-0.98,0-2.03,0.16-3.15,0.47c-1.12,0.31-2.43,0.79-3.9,1.44l-2.22-4.48
			c1.83-0.83,3.59-1.45,5.26-1.86c1.67-0.41,3.35-0.62,5.04-0.62c3.11,0,5.52,0.75,7.25,2.24c1.73,1.49,2.6,3.6,2.6,6.32v15h-5.99
			v-1.64c-0.95,0.71-1.97,1.23-3.06,1.55C161.92,40.27,160.72,40.43,159.42,40.43z M156.75,33.2c0,0.89,0.39,1.59,1.15,2.11
			c0.77,0.52,1.79,0.78,3.06,0.78c1.01,0,1.94-0.13,2.8-0.38c0.86-0.25,1.63-0.63,2.31-1.13V31.2c-0.74-0.29-1.51-0.52-2.31-0.67
			c-0.8-0.15-1.66-0.22-2.57-0.22c-1.39,0-2.48,0.26-3.26,0.78C157.15,31.61,156.75,32.31,156.75,33.2z"/>
		<path class="st1" d="M181.87,40.03l-9.9-23.12h6.61l6.35,15.4l6.3-15.4h6.48l-9.94,23.12H181.87z"/>
		<path class="st1" d="M209.03,40.48c-2.31,0-4.4-0.53-6.28-1.6c-1.88-1.07-3.37-2.5-4.46-4.3c-1.09-1.8-1.64-3.83-1.64-6.08
			c0-2.25,0.52-4.27,1.58-6.08c1.05-1.8,2.48-3.24,4.28-4.3c1.8-1.07,3.82-1.6,6.03-1.6c2.22,0,4.19,0.55,5.9,1.64
			c1.71,1.1,3.07,2.57,4.06,4.44c0.99,1.86,1.49,3.98,1.49,6.35v1.6h-17.13c0.27,0.92,0.7,1.75,1.31,2.48
			c0.61,0.74,1.36,1.32,2.26,1.73c0.9,0.42,1.87,0.62,2.91,0.62c1.04,0,1.99-0.16,2.86-0.49c0.87-0.33,1.62-0.78,2.24-1.38
			l3.99,3.64c-1.42,1.15-2.88,2-4.37,2.53C212.57,40.21,210.89,40.48,209.03,40.48z M202.77,26.19H214
			c-0.21-0.92-0.58-1.72-1.13-2.42c-0.55-0.69-1.2-1.24-1.95-1.64c-0.75-0.4-1.59-0.6-2.51-0.6c-0.95,0-1.81,0.19-2.57,0.58
			c-0.77,0.39-1.41,0.92-1.93,1.62C203.38,24.42,203.01,25.24,202.77,26.19z"/>
	</g>
</g>
</svg>
