<?xml version="1.0" encoding="utf-8"?>
<!-- Generator: Adobe Illustrator 25.3.0, SVG Export Plug-In . SVG Version: 6.00 Build 0)  -->
<svg version="1.1" id="Layer_1" xmlns="http://www.w3.org/2000/svg" xmlns:xlink="http://www.w3.org/1999/xlink" x="0px" y="0px"
	 viewBox="0 0 176 166" style="enable-background:new 0 0 176 166;" xml:space="preserve">
<style type="text/css">
	.st0{fill:#00CC66;}
	.st1{fill:#212045;}
	.st2{fill:#11C95F;}
</style>
<rect x="-10" y="-1" class="st1" width="186" height="170"/>
<path class="st0" d="M129.81,80.39c-10.26-2.86-21.86-4.22-32.15-3.97c14.15-3.98,19.39-10.01,21.15-14.9
	c2.07-5.76,0.02-12.06-5.36-16.45c-5.71-4.66-15.84-7.23-24.6-1.88c-5.48,3.34-12.14,10.91-13.26,28.06
	c-6.79,0.46-22.37,0.73-30.24,0.67c-2.4,0-4.37,1.95-4.39,4.36c-0.02,2.42,1.94,4.4,4.36,4.42c6.98,0.05,22.73-0.17,30.18-0.65
	c0.01,0.18,0.01,0.35,0.02,0.53c-8.85,3.66-15.45,9.52-18.66,16.58c-3.95,8.7-1.92,17.34,5.19,22c2.66,1.75,5.71,2.67,8.81,2.67
	c3.26,0,6.46-1.01,9.25-2.92c5.73-3.92,8.51-10.79,7.08-17.52c-0.74-3.5-1.73-8.78-2.35-14.64c9.41-2.2,26.21-2.46,42.59,2.11
	c2.34,0.65,4.75-0.72,5.4-3.05C133.51,83.46,132.14,81.04,129.81,80.39z M110.56,58.54c-0.72,1.99-4.7,8.56-26.07,11.71
	c0.82-9.88,3.82-16.46,8.93-19.58c1.87-1.14,3.95-1.72,6.17-1.72c2.97,0,6.08,1.09,8.31,2.91C109.37,53.05,111.66,55.5,110.56,58.54
	z M75.18,111.64c-2.62,1.79-5.72,1.85-8.3,0.16c-3.39-2.22-4.14-6.35-2.01-11.03c2-4.41,6.04-8.26,11.47-10.98
	c0.53,4.22,1.3,8.72,2.29,13.4C79.46,107.12,77.39,110.13,75.18,111.64z"/>
</svg>
